solid OpenSCAD_Model
  facet normal 0 0 1
    outer loop
      vertex 3 3 32.5
      vertex 1.5 1.5 32.5
      vertex 3 -3 32.5
    endloop
  endfacet
  facet normal 0 0 1
    outer loop
      vertex 3 3 32.5
      vertex -1.5 1.5 32.5
      vertex 1.5 1.5 32.5
    endloop
  endfacet
  facet normal 0 0 1
    outer loop
      vertex -1.5 1.5 32.5
      vertex -3 3 32.5
      vertex -1.5 -1.5 32.5
    endloop
  endfacet
  facet normal -0 0 1
    outer loop
      vertex -3 3 32.5
      vertex -1.5 1.5 32.5
      vertex 3 3 32.5
    endloop
  endfacet
  facet normal -0 0 1
    outer loop
      vertex 1.5 -1.5 32.5
      vertex 3 -3 32.5
      vertex 1.5 1.5 32.5
    endloop
  endfacet
  facet normal -0 0 1
    outer loop
      vertex -1.5 -1.5 32.5
      vertex 3 -3 32.5
      vertex 1.5 -1.5 32.5
    endloop
  endfacet
  facet normal 0 0 1
    outer loop
      vertex -1.5 -1.5 32.5
      vertex -3 -3 32.5
      vertex 3 -3 32.5
    endloop
  endfacet
  facet normal 0 0 1
    outer loop
      vertex -3 -3 32.5
      vertex -1.5 -1.5 32.5
      vertex -3 3 32.5
    endloop
  endfacet
  facet normal -1 0 0
    outer loop
      vertex -3 -3 -32.5
      vertex -3 3 32.5
      vertex -3 3 -32.5
    endloop
  endfacet
  facet normal -1 -0 0
    outer loop
      vertex -3 3 32.5
      vertex -3 -3 -32.5
      vertex -3 -3 32.5
    endloop
  endfacet
  facet normal 0 1 -0
    outer loop
      vertex 3 3 -32.5
      vertex -3 3 32.5
      vertex 3 3 32.5
    endloop
  endfacet
  facet normal 0 1 0
    outer loop
      vertex -3 3 32.5
      vertex 3 3 -32.5
      vertex -3 3 -32.5
    endloop
  endfacet
  facet normal 1 -0 0
    outer loop
      vertex 3 -3 32.5
      vertex 3 3 -32.5
      vertex 3 3 32.5
    endloop
  endfacet
  facet normal 1 0 0
    outer loop
      vertex 3 3 -32.5
      vertex 3 -3 32.5
      vertex 3 -3 -32.5
    endloop
  endfacet
  facet normal 0 0 -1
    outer loop
      vertex -3 -3 -32.5
      vertex 3 3 -32.5
      vertex 3 -3 -32.5
    endloop
  endfacet
  facet normal -0 0 -1
    outer loop
      vertex 3 3 -32.5
      vertex -3 -3 -32.5
      vertex -3 3 -32.5
    endloop
  endfacet
  facet normal 0 -1 0
    outer loop
      vertex -3 -3 -32.5
      vertex 3 -3 32.5
      vertex -3 -3 32.5
    endloop
  endfacet
  facet normal 0 -1 -0
    outer loop
      vertex 3 -3 32.5
      vertex -3 -3 -32.5
      vertex 3 -3 -32.5
    endloop
  endfacet
  facet normal 1 -0 0
    outer loop
      vertex -1.5 -1.5 32.5
      vertex -1.5 1.5 29.5
      vertex -1.5 1.5 32.5
    endloop
  endfacet
  facet normal 1 0 0
    outer loop
      vertex -1.5 1.5 29.5
      vertex -1.5 -1.5 32.5
      vertex -1.5 -1.5 29.5
    endloop
  endfacet
  facet normal -1 0 0
    outer loop
      vertex 1.5 -1.5 29.5
      vertex 1.5 1.5 32.5
      vertex 1.5 1.5 29.5
    endloop
  endfacet
  facet normal -1 -0 0
    outer loop
      vertex 1.5 1.5 32.5
      vertex 1.5 -1.5 29.5
      vertex 1.5 -1.5 32.5
    endloop
  endfacet
  facet normal -0 0 1
    outer loop
      vertex -1.5 1.5 29.5
      vertex 1.5 -1.5 29.5
      vertex 1.5 1.5 29.5
    endloop
  endfacet
  facet normal 0 0 1
    outer loop
      vertex 1.5 -1.5 29.5
      vertex -1.5 1.5 29.5
      vertex -1.5 -1.5 29.5
    endloop
  endfacet
  facet normal 0 1 -0
    outer loop
      vertex 1.5 -1.5 29.5
      vertex -1.5 -1.5 32.5
      vertex 1.5 -1.5 32.5
    endloop
  endfacet
  facet normal 0 1 0
    outer loop
      vertex -1.5 -1.5 32.5
      vertex 1.5 -1.5 29.5
      vertex -1.5 -1.5 29.5
    endloop
  endfacet
  facet normal 0 -1 0
    outer loop
      vertex -1.5 1.5 29.5
      vertex 1.5 1.5 32.5
      vertex -1.5 1.5 32.5
    endloop
  endfacet
  facet normal 0 -1 -0
    outer loop
      vertex 1.5 1.5 32.5
      vertex -1.5 1.5 29.5
      vertex 1.5 1.5 29.5
    endloop
  endfacet
endsolid OpenSCAD_Model
